<svg height="512pt" viewBox="0 -108 512 512" width="512pt" xmlns="http://www.w3.org/2000/svg"><path d="m487.765625 193.773438v-104.828126c0-6.613281-4.265625-12.476562-10.5625-14.503906l-228.644531-73.707031c-3.039063-.980469-6.3125-.980469-9.351563 0l-228.644531 73.707031c-6.292969 2.027344-10.5625 7.886719-10.5625 14.503906 0 6.613282 4.269531 12.472657 10.5625 14.5l114.46875 36.902344v57.171875c0 .25.007812.496094.019531.742188.453125 14.828125 14.464844 28.878906 39.570313 39.640625 22.933594 9.832031 51.085937 15.246094 79.265625 15.246094 28.179687 0 56.332031-5.414063 79.265625-15.246094 25.523437-10.941406 39.582031-25.28125 39.582031-40.382813v-57.171875l94.554687-30.480468v83.90625c-14.21875 5.972656-24.234374 20.042968-24.234374 36.410156v51.628906c0 8.414062 6.824218 15.238281 15.238281 15.238281h48.46875c8.414062 0 15.238281-6.824219 15.238281-15.238281v-51.628906c0-16.367188-10.011719-30.4375-24.234375-36.410156zm-181.390625 18.046874c-18.386719 6.996094-40.578125 10.851563-62.488281 10.851563-21.914063 0-44.105469-3.855469-62.488281-10.851563-16.113282-6.136718-24.050782-12.773437-25.890626-15.558593v-46.089844l83.699219 26.980469c1.519531.488281 3.097657.734375 4.675781.734375 1.578126 0 3.15625-.242188 4.675782-.734375l83.699218-26.980469v46.101563c-1.855468 2.789062-9.789062 9.417968-25.882812 15.546874zm-62.492188-65.179687-178.980468-57.695313 178.980468-57.695312 178.980469 57.695312zm237.640626 119.933594h-17.992188v-36.390625c0-4.960938 4.039062-8.996094 8.996094-8.996094 4.960937 0 8.996094 4.035156 8.996094 8.996094zm0 0"/></svg>