<?xml version="1.0" encoding="iso-8859-1"?>
<!-- Generator: Adobe Illustrator 18.0.0, SVG Export Plug-In . SVG Version: 6.00 Build 0)  -->
<!DOCTYPE svg PUBLIC "-//W3C//DTD SVG 1.1//EN" "http://www.w3.org/Graphics/SVG/1.1/DTD/svg11.dtd">
<svg version="1.1" id="Capa_1" xmlns="http://www.w3.org/2000/svg" xmlns:xlink="http://www.w3.org/1999/xlink" x="0px" y="0px"
	 viewBox="0 0 249.969 249.969" style="enable-background:new 0 0 249.969 249.969;" xml:space="preserve">
<g>
	<path d="M234.743,75.354c1.254-2.168,1.254-4.842,0-7.01c-2.982-5.154-6.432-9.951-10.266-14.363
		c6.368-15.525,5.754-34.111-1.919-47.694c-2.515-4.45-7.403-6.844-12.45-6.089c-15.127,2.252-28.374,10.995-36.422,23.757
		c-6.337-1.367-12.855-2.089-19.466-2.089c-6.582,0-13.11,0.692-19.489,2.052c-8.175-12.954-21.657-21.723-37.06-23.814
		c-4.61-0.62-9.108,1.571-11.453,5.597c-8.663,14.882-9.425,32.728-2.207,48.221c-3.875,4.462-7.334,9.274-10.312,14.422
		c-1.254,2.168-1.254,4.842,0,7.01c4.314,7.457,9.6,14.171,15.633,20.036c-2.877,9.756-4.608,19.827-5.198,30.035
		c-4.818-4.069-10.061-7.556-15.619-10.409c-0.462-0.302-0.952-0.543-1.461-0.725c-13.521-6.607-28.788-9.531-44.176-8.1
		c-2.961,0.276-5.425,2.394-6.143,5.279c-3.733,15-3.136,30.538,1.366,44.901c0.103,0.525,0.266,1.04,0.492,1.537
		c3.354,10.013,8.623,19.418,15.672,27.621c7.153,8.323,16.029,14.961,25.983,19.667c0.183,0.093,0.367,0.178,0.556,0.255
		c11.159,5.175,23.643,7.94,36.559,7.94c2.811,0,5.642-0.131,8.483-0.396c1.296-0.121,2.482-0.597,3.475-1.323
		c10.998,15.16,25.079,27.917,41.396,37.355c1.085,0.627,2.295,0.94,3.505,0.94c1.267,0,2.532-0.344,3.651-1.028l5.261-3.217
		c0.049-0.029,0.097-0.06,0.145-0.09c38.37-24.764,61.277-66.775,61.277-112.383c0-12.883-1.835-25.618-5.445-37.86
		C225.143,89.526,230.429,82.811,234.743,75.354z M210.947,14.247c4.192,8.196,4.98,19.044,2.421,28.915
		c-7.671-6.314-16.31-11.369-25.562-14.968C193.51,20.944,201.706,15.929,210.947,14.247z M97.487,14.247
		c9.231,1.675,17.403,6.656,23.108,13.889c-9.329,3.61-17.957,8.692-25.742,15.164C91.839,33.703,92.733,23.307,97.487,14.247z
		 M87.968,71.848c4.18-6.435,9.26-12.211,15.141-17.211c8.438-7.172,18.067-12.387,28.618-15.517
		c0.444-0.025,0.88-0.087,1.296-0.191l-0.041-0.165c6.882-1.917,14.019-2.899,21.238-2.899c26.729,0,51.746,13.688,66.252,35.983
		c-14.506,22.295-39.523,35.983-66.252,35.983S102.474,94.143,87.968,71.848z M49.752,181.449l35.34-30.371
		c0.776,5.771,1.928,11.478,3.441,17.086l-26.089,22.421C57.845,188.044,53.576,184.994,49.752,181.449z M29.272,119.846
		c7.571-0.155,15.049,0.958,22.148,3.209l-22.296,19.161C27.97,134.868,27.992,127.312,29.272,119.846z M33.222,157.153
		l32.34-27.793c4.459,2.622,8.63,5.76,12.43,9.36l-37.389,32.132C37.615,166.552,35.141,161.956,33.222,157.153z M97.352,199.393
		c-7.026,0-13.88-0.987-20.374-2.839l16.308-14.016c1.716,4.335,3.669,8.576,5.836,12.71l-0.365,4.132
		C98.287,199.388,97.819,199.393,97.352,199.393z M210.555,133.251c0,40.804-20.483,78.396-54.799,100.574l-1.565,0.957
		c-6.713-4.197-12.966-9.042-18.69-14.436c15.542-9.444,27.943-22.936,36.15-39.491c4.136-8.341,7.038-17.177,8.629-26.263
		c0.666-3.809-1.881-7.436-5.688-8.103c-3.807-0.665-7.435,1.882-8.103,5.688c-1.358,7.764-3.842,15.32-7.381,22.458
		c-7.462,15.053-18.976,27.143-33.463,35.255c-4.834-5.792-9.132-12.049-12.82-18.698c-9.772-17.623-14.938-37.659-14.938-57.942
		c0-9.512,1.131-18.926,3.331-28.077c15.348,10.645,33.797,16.658,53.004,16.658c19.207,0,37.656-6.013,53.004-16.658
		C209.424,114.325,210.555,123.739,210.555,133.251z"/>
	<path style="fill:#FFFFFF;" d="M174.615,78.844c1.84,0,3.641-0.739,4.95-2.05c1.3-1.3,2.05-3.1,2.05-4.95
		c0-1.84-0.75-3.64-2.05-4.949c-1.31-1.301-3.11-2.051-4.95-2.051s-3.649,0.75-4.95,2.051c-1.3,1.31-2.05,3.109-2.05,4.949
		c0,1.851,0.75,3.65,2.05,4.95C170.966,78.105,172.776,78.844,174.615,78.844z"/>
	<path d="M133.827,85.607c8.092,0,15.359-3.501,20.393-9.061c5.035,5.56,12.302,9.061,20.393,9.061
		c10.185,0,19.077-5.534,23.835-13.758c-4.758-8.224-13.65-13.758-23.835-13.758c-8.092,0-15.359,3.501-20.393,9.061
		c-5.035-5.56-12.302-9.061-20.393-9.061c-10.185,0-19.077,5.534-23.835,13.758C114.75,80.073,123.642,85.607,133.827,85.607z
		 M169.665,66.895c1.301-1.301,3.11-2.051,4.95-2.051s3.641,0.75,4.95,2.051c1.3,1.31,2.05,3.109,2.05,4.949
		c0,1.851-0.75,3.65-2.05,4.95c-1.31,1.311-3.11,2.05-4.95,2.05s-3.649-0.739-4.95-2.05c-1.3-1.3-2.05-3.1-2.05-4.95
		C167.615,70.004,168.365,68.205,169.665,66.895z M128.875,66.895c1.301-1.301,3.11-2.051,4.95-2.051s3.65,0.75,4.95,2.051
		c1.3,1.31,2.05,3.109,2.05,4.949c0,1.851-0.75,3.65-2.05,4.95c-1.31,1.311-3.11,2.05-4.95,2.05s-3.64-0.739-4.95-2.05
		c-1.3-1.3-2.05-3.1-2.05-4.95C126.825,70.004,127.575,68.205,128.875,66.895z"/>
	<path style="fill:#FFFFFF;" d="M133.825,78.844c1.84,0,3.641-0.739,4.95-2.05c1.3-1.3,2.05-3.1,2.05-4.95
		c0-1.84-0.75-3.64-2.05-4.949c-1.3-1.301-3.11-2.051-4.95-2.051s-3.649,0.75-4.95,2.051c-1.3,1.31-2.05,3.109-2.05,4.949
		c0,1.851,0.75,3.65,2.05,4.95C130.186,78.105,131.985,78.844,133.825,78.844z"/>
	<circle cx="154.221" cy="96.659" r="9.189"/>
</g>
<g>
</g>
<g>
</g>
<g>
</g>
<g>
</g>
<g>
</g>
<g>
</g>
<g>
</g>
<g>
</g>
<g>
</g>
<g>
</g>
<g>
</g>
<g>
</g>
<g>
</g>
<g>
</g>
<g>
</g>
</svg>
