<svg id="Capa_1" enable-background="new 0 0 512 512" height="512" viewBox="0 0 512 512" width="512" xmlns="http://www.w3.org/2000/svg"><g><g><g><g><g><g><path d="m272.29.51c133.795 8.401 239.71 119.577 239.71 255.49 0 141.385-114.615 256-256 256s-256-114.615-256-256c0-135.913 105.915-247.088 239.709-255.49z" fill="#1dd882"/></g></g></g></g></g><path d="m512 256c0-5.472-.172-10.903-.51-16.29l-239.2-239.2-14.102 197.336-163.371 172.656 140.689 140.689c6.761.536 13.596.809 20.494.809 141.385 0 256-114.615 256-256z" fill="#06b26b"/><g><path d="m272.29.51c-5.387-.338-10.818-.51-16.29-.51s-10.903.172-16.29.51v236.231h32.579v-236.231z" fill="#dce1eb"/></g><g><path d="m272.29.51c-5.347-.336-10.738-.507-16.169-.509v236.74h16.169z" fill="#bec3d2"/></g><g><path d="m434.823 323.952-10.097-130.185c-2.716-35.017-35.466-59.758-69.89-52.8l-23.226 4.694h-151.219l-23.226-4.694c-34.425-6.958-67.174 17.784-69.89 52.8l-10.098 130.185c-2.285 29.457 17.76 55.992 46.72 61.845 28.96 5.853 57.736-10.814 67.07-38.847l22.023-66.141h86.018l22.023 66.141c9.334 28.032 38.111 44.7 67.07 38.847 28.961-5.853 49.007-32.388 46.722-61.845z" fill="#fff"/></g><g><path d="m434.823 323.952-10.097-130.185c-2.716-35.017-35.466-59.758-69.89-52.801l-23.226 4.694h-75.488v135.148h42.888l22.023 66.141c9.334 28.033 38.111 44.7 67.07 38.847 28.96-5.852 49.005-32.387 46.72-61.844z" fill="#e9edf5"/></g><g><path d="m201.881 246.172v-35.019h-28.314v-28.314h-35.019v28.314h-28.313v35.02h28.313v28.313h35.019v-28.314z" fill="#707789"/></g><g><circle cx="359.352" cy="197.665" fill="#ffce00" r="14.826"/></g><g><circle cx="359.352" cy="256" fill="#1dd882" r="14.826"/></g><g><circle cx="388.519" cy="226.832" fill="#ff73a5" r="14.826"/></g><g><circle cx="330.184" cy="226.832" fill="#65b1fc" r="14.826"/></g></g></svg>