<?xml version="1.0" encoding="iso-8859-1"?>
<!-- Generator: Adobe Illustrator 19.0.0, SVG Export Plug-In . SVG Version: 6.00 Build 0)  -->
<svg version="1.1" id="Capa_1" xmlns="http://www.w3.org/2000/svg" xmlns:xlink="http://www.w3.org/1999/xlink" x="0px" y="0px"
	 viewBox="0 0 512 512" style="enable-background:new 0 0 512 512;" xml:space="preserve">
<circle style="fill:#FFD93B;" cx="256" cy="256" r="256"/>
<path style="fill:#F4C534;" d="M512,256c0,141.44-114.64,256-256,256c-80.48,0-152.32-37.12-199.28-95.28
	c43.92,35.52,99.84,56.72,160.72,56.72c141.36,0,256-114.56,256-256c0-60.88-21.2-116.8-56.72-160.72
	C474.8,103.68,512,175.52,512,256z"/>
<path style="fill:#3E4347;" d="M82.768,201.84l-9.36,19.392l20.048-8.016c2.512-1.008,63.152-24.064,129.328,30.08L244,260.512
	C218.8,176.832,120.816,123.072,82.768,201.84z"/>
<path style="fill:#F4C534;" d="M438.592,220.896c0,46.72-38.064,84.784-84.784,84.784c-46.896,0-84.784-38.064-84.784-84.784
	s37.904-84.784,84.784-84.784C400.528,136.112,438.592,174.176,438.592,220.896z"/>
<path style="fill:#FFFFFF;" d="M423.152,220.896c-1.632,39.488-34.112,71.664-72.32,71.664c-38.352,0-68.016-32.176-66.384-71.664
	s33.968-71.664,72.32-71.664C394.992,149.232,424.784,181.408,423.152,220.896z"/>
<path style="fill:#3E4347;" d="M370.448,226.752c0,20.672-16.8,37.472-37.488,37.472c-20.672,0-37.328-16.8-37.328-37.472
	c0-20.528,16.656-37.328,37.344-37.328C353.648,189.424,370.448,206.224,370.448,226.752z"/>
<path style="fill:#FFFFFF;" d="M353.792,220.72c-2.88,2.736-8.336,1.872-12.352-2.16c-4.16-4.16-5.024-9.616-2.304-12.496
	c2.72-2.736,8.336-1.728,12.352,2.288C355.52,212.4,356.512,217.856,353.792,220.72z"/>
<path style="fill:#3E4347;" d="M419.728,342.016c-22.08,69.28-87.04,119.52-163.68,119.52c-76.8,0-141.6-50.24-163.84-119.52
	c-2.88-9.28,5.44-18.08,14.88-16.16c99.36,20,198.56,20,297.76,0C414.448,323.936,422.768,332.736,419.728,342.016z"/>
<path style="fill:#FFFFFF;" d="M381.888,329.904c-83.888,14.304-167.776,14.304-251.776,0c15.856,42.784,66.16,54.4,125.888,54.4
	C315.728,384.32,366.032,372.704,381.888,329.904z"/>
<path style="fill:#E24B4B;" d="M256.048,461.536c32.832,0,63.504-9.28,89.584-25.28c-11.344-24.592-49.328-42.704-94.544-42.704
	c-42.24,0-78.144,15.808-91.952,37.936C186.72,450.384,220.032,461.536,256.048,461.536z"/>
<g>
</g>
<g>
</g>
<g>
</g>
<g>
</g>
<g>
</g>
<g>
</g>
<g>
</g>
<g>
</g>
<g>
</g>
<g>
</g>
<g>
</g>
<g>
</g>
<g>
</g>
<g>
</g>
<g>
</g>
</svg>
